<svg width="157" height="40" viewBox="0 0 157 40" fill="none" xmlns="http://www.w3.org/2000/svg">
<path d="M54.92 11.24V29H51.536V11.24H54.92Z" fill="white"/>
<path d="M70.7013 15.704V29H67.3173V26.312C66.9653 27.208 66.3813 27.912 65.5653 28.424C64.7653 28.92 63.8373 29.168 62.7813 29.168C61.2453 29.168 60.0213 28.664 59.1093 27.656C58.1973 26.648 57.7413 25.24 57.7413 23.432V15.704H61.1013V23.048C61.1013 24.104 61.3733 24.928 61.9173 25.52C62.4613 26.096 63.1973 26.384 64.1253 26.384C65.1013 26.384 65.8773 26.072 66.4533 25.448C67.0293 24.824 67.3173 23.928 67.3173 22.76V15.704H70.7013Z" fill="white"/>
<path d="M79.7542 15.536C81.4662 15.536 82.8902 16 84.0262 16.928C85.1782 17.856 85.8982 19.12 86.1862 20.72H82.6102C82.4662 20.016 82.1382 19.464 81.6262 19.064C81.1142 18.648 80.4662 18.44 79.6822 18.44C78.7862 18.44 78.0342 18.776 77.4262 19.448C76.8342 20.104 76.5382 21.072 76.5382 22.352C76.5382 23.632 76.8342 24.608 77.4262 25.28C78.0342 25.936 78.7862 26.264 79.6822 26.264C80.4662 26.264 81.1142 26.064 81.6262 25.664C82.1382 25.248 82.4662 24.688 82.6102 23.984H86.1862C85.8982 25.584 85.1782 26.848 84.0262 27.776C82.8902 28.704 81.4662 29.168 79.7542 29.168C78.4582 29.168 77.3062 28.896 76.2982 28.352C75.2902 27.792 74.5062 27 73.9462 25.976C73.3862 24.952 73.1062 23.744 73.1062 22.352C73.1062 20.96 73.3862 19.752 73.9462 18.728C74.5062 17.688 75.2902 16.896 76.2982 16.352C77.3062 15.808 78.4582 15.536 79.7542 15.536Z" fill="white"/>
<path d="M94.7347 15.536C96.0307 15.536 97.1907 15.808 98.2147 16.352C99.2547 16.896 100.071 17.688 100.663 18.728C101.255 19.752 101.551 20.96 101.551 22.352C101.551 23.744 101.255 24.952 100.663 25.976C100.071 27 99.2547 27.792 98.2147 28.352C97.1907 28.896 96.0307 29.168 94.7347 29.168C93.4387 29.168 92.2707 28.896 91.2307 28.352C90.2067 27.792 89.3987 27 88.8067 25.976C88.2147 24.952 87.9187 23.744 87.9187 22.352C87.9187 20.96 88.2147 19.752 88.8067 18.728C89.3987 17.688 90.2067 16.896 91.2307 16.352C92.2707 15.808 93.4387 15.536 94.7347 15.536ZM94.7347 18.464C93.7907 18.464 92.9907 18.8 92.3347 19.472C91.6787 20.128 91.3507 21.088 91.3507 22.352C91.3507 23.616 91.6787 24.584 92.3347 25.256C92.9907 25.912 93.7907 26.24 94.7347 26.24C95.6787 26.24 96.4787 25.912 97.1347 25.256C97.7907 24.584 98.1187 23.616 98.1187 22.352C98.1187 21.088 97.7907 20.128 97.1347 19.472C96.4787 18.8 95.6787 18.464 94.7347 18.464Z" fill="white"/>
<path d="M111.862 15.512C113.398 15.512 114.622 16.016 115.534 17.024C116.446 18.032 116.902 19.448 116.902 21.272V29H113.542V21.656C113.542 20.6 113.27 19.784 112.726 19.208C112.182 18.616 111.438 18.32 110.494 18.32C109.534 18.32 108.766 18.632 108.19 19.256C107.614 19.88 107.326 20.776 107.326 21.944V29H103.942V15.704H107.326V18.368C107.678 17.472 108.254 16.776 109.054 16.28C109.87 15.768 110.806 15.512 111.862 15.512Z" fill="white"/>
<path d="M126.984 26.096V29H125.208C123.72 29 122.576 28.64 121.776 27.92C120.992 27.2 120.6 26 120.6 24.32V18.56H118.752V15.704H120.6V12.416H123.984V15.704H126.96V18.56H123.984V24.368C123.984 25.008 124.112 25.456 124.368 25.712C124.624 25.968 125.056 26.096 125.664 26.096H126.984Z" fill="white"/>
<path d="M134.627 15.536C135.747 15.536 136.707 15.8 137.507 16.328C138.307 16.856 138.875 17.568 139.211 18.464V15.704H142.571V29H139.211V26.216C138.875 27.112 138.307 27.832 137.507 28.376C136.707 28.904 135.747 29.168 134.627 29.168C133.507 29.168 132.499 28.896 131.603 28.352C130.707 27.808 130.003 27.024 129.491 26C128.995 24.96 128.747 23.744 128.747 22.352C128.747 20.96 128.995 19.752 129.491 18.728C130.003 17.688 130.707 16.896 131.603 16.352C132.499 15.808 133.507 15.536 134.627 15.536ZM135.683 18.488C134.627 18.488 133.779 18.832 133.139 19.52C132.499 20.208 132.179 21.152 132.179 22.352C132.179 23.552 132.499 24.496 133.139 25.184C133.779 25.856 134.627 26.192 135.683 26.192C136.707 26.192 137.547 25.848 138.203 25.16C138.875 24.456 139.211 23.52 139.211 22.352C139.211 21.168 138.875 20.232 138.203 19.544C137.547 18.84 136.707 18.488 135.683 18.488Z" fill="white"/>
<path d="M150.222 15.536C151.838 15.536 153.134 15.944 154.11 16.76C155.086 17.576 155.694 18.664 155.934 20.024H152.766C152.638 19.384 152.35 18.872 151.902 18.488C151.454 18.104 150.87 17.912 150.15 17.912C149.574 17.912 149.126 18.048 148.806 18.32C148.486 18.592 148.326 18.96 148.326 19.424C148.326 19.792 148.454 20.088 148.71 20.312C148.966 20.536 149.286 20.712 149.67 20.84C150.054 20.968 150.606 21.12 151.326 21.296C152.334 21.52 153.15 21.76 153.774 22.016C154.414 22.256 154.958 22.648 155.406 23.192C155.87 23.72 156.102 24.44 156.102 25.352C156.102 26.488 155.654 27.408 154.758 28.112C153.878 28.816 152.686 29.168 151.182 29.168C149.454 29.168 148.07 28.784 147.03 28.016C145.99 27.232 145.358 26.12 145.134 24.68H148.374C148.454 25.336 148.742 25.856 149.238 26.24C149.734 26.608 150.382 26.792 151.182 26.792C151.758 26.792 152.198 26.656 152.502 26.384C152.806 26.096 152.958 25.728 152.958 25.28C152.958 24.896 152.822 24.584 152.55 24.344C152.294 24.104 151.966 23.92 151.566 23.792C151.182 23.664 150.63 23.512 149.91 23.336C148.918 23.112 148.11 22.888 147.486 22.664C146.878 22.424 146.35 22.048 145.902 21.536C145.47 21.024 145.254 20.32 145.254 19.424C145.254 18.272 145.694 17.336 146.574 16.616C147.454 15.896 148.67 15.536 150.222 15.536Z" fill="white"/>
<path d="M34.1422 5.85781C30.3647 2.08031 25.3422 0 20 0C14.6578 0 9.63531 2.08031 5.85781 5.85781C2.08031 9.63531 0 14.6578 0 20C0 25.3422 2.08039 30.3646 5.85781 34.1422C9.63523 37.9198 14.6578 40 20 40C25.3422 40 30.3647 37.9197 34.1422 34.1422C37.9197 30.3647 40 25.3422 40 20C40 14.6578 37.9196 9.63539 34.1422 5.85781Z" fill="#48BB78"/>
<g clip-path="url(#clip0_35212_417)">
<path d="M20.5714 8V33.1429" stroke="white" stroke-width="2" stroke-linecap="round" stroke-linejoin="round"/>
<path d="M26.2857 12.5714H17.7143C16.6534 12.5714 15.636 12.9929 14.8859 13.743C14.1357 14.4931 13.7143 15.5106 13.7143 16.5714C13.7143 17.6323 14.1357 18.6497 14.8859 19.3999C15.636 20.15 16.6534 20.5714 17.7143 20.5714H23.4286C24.4894 20.5714 25.5069 20.9929 26.257 21.743C27.0072 22.4932 27.4286 23.5106 27.4286 24.5714C27.4286 25.6323 27.0072 26.6497 26.257 27.3999C25.5069 28.15 24.4894 28.5714 23.4286 28.5714H13.7143" stroke="white" stroke-width="2" stroke-linecap="round" stroke-linejoin="round"/>
</g>
<defs>
<clipPath id="clip0_35212_417">
<rect width="27.4286" height="27.4286" fill="white" transform="translate(6.85715 6.85714)"/>
</clipPath>
</defs>
</svg>
